<?xml version="1.0" encoding="utf-8"?>
<!-- Generator: Adobe Illustrator 15.1.0, SVG Export Plug-In . SVG Version: 6.00 Build 0)  -->
<!DOCTYPE svg PUBLIC "-//W3C//DTD SVG 1.1//EN" "http://www.w3.org/Graphics/SVG/1.1/DTD/svg11.dtd">
<svg version="1.1" id="Layer_1" xmlns="http://www.w3.org/2000/svg" xmlns:xlink="http://www.w3.org/1999/xlink" x="0px" y="0px"
	 width="600px" height="600px" viewBox="0 0 600 600" enable-background="new 0 0 600 600" xml:space="preserve">
<rect x="0" fill="#E5637C" width="600" height="600"/>
<g>
	<path fill="#FFFFFF" d="M124.937,440.626v-12.562c0-13.069-7.791-19.603-23.367-19.603c-15.583,0-23.368,6.533-23.368,19.603V543.4
		c0,3.85-3.354,5.785-10.045,5.785c-6.703,0-10.057-1.936-10.057-5.785V430.575c0-13.91,3.979-24.003,11.934-30.281
		c7.95-6.279,18.472-9.427,31.536-9.427c28.981,0,43.475,13.063,43.475,39.202v10.557c0,3.854-3.354,5.779-10.051,5.779
		S124.937,444.48,124.937,440.626z"/>
	<path fill="#FFFFFF" d="M252.22,541.135c-5.531,5.361-14.917,8.051-28.146,8.051c-13.245,0-22.62-2.689-28.152-8.051
		c-5.519-5.354-9.291-14.152-11.303-26.381l-18.595-111.07c-0.506-3.514-0.753-5.438-0.753-5.779c0-3.013,3.177-4.52,9.545-4.52
		c6.372,0,9.886,1.924,10.568,5.779l18.837,112.819c1.165,7.213,3.054,12.281,5.655,15.205c2.601,2.937,7.327,4.401,14.199,4.401
		c6.856,0,11.587-1.465,14.2-4.401c2.589-2.924,4.479-7.992,5.649-15.205l18.849-112.819c0.676-3.855,4.183-5.779,10.557-5.779
		c6.361,0,9.545,1.507,9.545,4.52c0,0.342-0.253,2.266-0.753,5.779l-18.595,111.07C261.512,526.982,257.746,535.78,252.22,541.135z"
		/>
	<path fill="#FFFFFF" d="M337.9,350.157v165.851c0,5.366,1.246,10.346,3.766,14.946c2.506,4.613,3.771,7.004,3.771,7.168
		c0,2.013-1.594,4.148-4.772,6.415c-3.184,2.247-5.872,3.389-8.044,3.389c-3.524,0-6.872-3.061-10.051-9.174
		c-3.184-6.113-4.778-12.858-4.778-20.231V350.157c0-3.849,3.349-5.778,10.057-5.778C334.534,344.379,337.9,346.309,337.9,350.157z"
		/>
</g>
</svg>
